<?xml version="1.0" encoding="UTF-8" standalone="no"?>
<!DOCTYPE svg PUBLIC "-//W3C//DTD SVG 1.1//EN"
 "http://www.w3.org/Graphics/SVG/1.1/DTD/svg11.dtd">
<!-- Generated by graphviz version 2.40.1 (20161225.0304)
 -->
<!-- Title: H Pages: 1 -->
<svg width="539pt" height="328pt"
 viewBox="0.00 0.00 538.50 328.00" xmlns="http://www.w3.org/2000/svg" xmlns:xlink="http://www.w3.org/1999/xlink">
<g id="graph0" class="graph" transform="scale(1 1) rotate(0) translate(4 324)">
<title>H</title>
<polygon fill="#ffffff" stroke="transparent" points="-4,4 -4,-324 534.5,-324 534.5,4 -4,4"/>
<!-- s1 -->
<g id="node1" class="node">
<title>s1</title>
<polygon fill="none" stroke="#000000" points="270,-298 270,-316 344,-316 344,-298 270,-298"/>
<text text-anchor="start" x="281.308" y="-305" font-family="Times,serif" text-decoration="underline" font-size="10.00" fill="#000000">s1 :SEGroup</text>
<polygon fill="none" stroke="#000000" points="270,-280 270,-298 344,-298 344,-280 270,-280"/>
<text text-anchor="start" x="273" y="-286" font-family="Times,serif" font-size="10.00" fill="#000000"> &#160;head = &quot;Albert&quot;</text>
</g>
<!-- s2 -->
<g id="node2" class="node">
<title>s2</title>
<polygon fill="none" stroke="#000000" points="126,-218 126,-236 213,-236 213,-218 126,-218"/>
<text text-anchor="start" x="145.7495" y="-225" font-family="Times,serif" text-decoration="underline" font-size="10.00" fill="#000000">s2 :SEClass</text>
<polygon fill="none" stroke="#000000" points="126,-188 126,-218 213,-218 213,-188 126,-188"/>
<text text-anchor="start" x="129" y="-206" font-family="Times,serif" font-size="10.00" fill="#000000"> &#160;term = &quot;2018&#45;10&quot;</text>
<text text-anchor="start" x="129" y="-194" font-family="Times,serif" font-size="10.00" fill="#000000"> &#160;topic = &quot;modeling&quot;</text>
</g>
<!-- s1&#45;&gt;s2 -->
<g id="edge1" class="edge">
<title>s1&#45;&gt;s2</title>
<path fill="none" stroke="#000000" d="M271.4616,-275.8529C253.9722,-264.9537 232.6984,-251.6961 214.0774,-240.0917"/>
<text text-anchor="middle" x="200.1959" y="-243.0917" font-family="Times,serif" font-size="10.00" fill="#000000">classes</text>
<text text-anchor="middle" x="259.7971" y="-266.8529" font-family="Times,serif" font-size="10.00" fill="#000000">group</text>
</g>
<!-- s3 -->
<g id="node3" class="node">
<title>s3</title>
<polygon fill="none" stroke="#000000" points="247,-218 247,-236 368,-236 368,-218 247,-218"/>
<text text-anchor="start" x="279.304" y="-225" font-family="Times,serif" text-decoration="underline" font-size="10.00" fill="#000000">s3 :SEStudent</text>
<polygon fill="none" stroke="#000000" points="247,-188 247,-218 368,-218 368,-188 247,-188"/>
<text text-anchor="start" x="250" y="-206" font-family="Times,serif" font-size="10.00" fill="#000000"> &#160;studentId = &quot;m4242&quot;</text>
<text text-anchor="start" x="250" y="-194" font-family="Times,serif" font-size="10.00" fill="#000000"> &#160;teachingAssistantFor = null</text>
</g>
<!-- s1&#45;&gt;s3 -->
<g id="edge2" class="edge">
<title>s1&#45;&gt;s3</title>
<path fill="none" stroke="#000000" d="M307,-275.8529C307,-265.0035 307,-251.8171 307,-240.2508"/>
<text text-anchor="middle" x="290.6125" y="-243.2508" font-family="Times,serif" font-size="10.00" fill="#000000">students</text>
<text text-anchor="middle" x="295.3355" y="-266.8529" font-family="Times,serif" font-size="10.00" fill="#000000">group</text>
</g>
<!-- s4 -->
<g id="node4" class="node">
<title>s4</title>
<polygon fill="none" stroke="#000000" points="402,-218 402,-236 523,-236 523,-218 402,-218"/>
<text text-anchor="start" x="434.304" y="-225" font-family="Times,serif" text-decoration="underline" font-size="10.00" fill="#000000">s4 :SEStudent</text>
<polygon fill="none" stroke="#000000" points="402,-188 402,-218 523,-218 523,-188 402,-188"/>
<text text-anchor="start" x="405" y="-206" font-family="Times,serif" font-size="10.00" fill="#000000"> &#160;studentId = &quot;m2323&quot;</text>
<text text-anchor="start" x="405" y="-194" font-family="Times,serif" font-size="10.00" fill="#000000"> &#160;teachingAssistantFor = null</text>
</g>
<!-- s1&#45;&gt;s4 -->
<g id="edge3" class="edge">
<title>s1&#45;&gt;s4</title>
<path fill="none" stroke="#000000" d="M346.9164,-275.8529C366.5602,-264.9537 390.4547,-251.6961 411.3695,-240.0917"/>
<text text-anchor="middle" x="394.982" y="-243.0917" font-family="Times,serif" font-size="10.00" fill="#000000">students</text>
<text text-anchor="middle" x="335.2519" y="-266.8529" font-family="Times,serif" font-size="10.00" fill="#000000">group</text>
</g>
<!-- a5 -->
<g id="node5" class="node">
<title>a5</title>
<polygon fill="none" stroke="#000000" points="25,-126 25,-144 109,-144 109,-126 25,-126"/>
<text text-anchor="start" x="35.7545" y="-133" font-family="Times,serif" text-decoration="underline" font-size="10.00" fill="#000000">a5 :Assignment</text>
<polygon fill="none" stroke="#000000" points="25,-96 25,-126 109,-126 109,-96 25,-96"/>
<text text-anchor="start" x="28" y="-114" font-family="Times,serif" font-size="10.00" fill="#000000"> &#160;points = 23.0</text>
<text text-anchor="start" x="28" y="-102" font-family="Times,serif" font-size="10.00" fill="#000000"> &#160;task = &quot;mid_term&quot;</text>
</g>
<!-- s2&#45;&gt;a5 -->
<g id="edge4" class="edge">
<title>s2&#45;&gt;a5</title>
<path fill="none" stroke="#000000" d="M137.8424,-183.8971C125.3049,-172.5887 110.8719,-159.5707 98.3183,-148.2479"/>
<text text-anchor="middle" x="73.8773" y="-151.2479" font-family="Times,serif" font-size="10.00" fill="#000000">assignments</text>
<text text-anchor="middle" x="122.8459" y="-174.8971" font-family="Times,serif" font-size="10.00" fill="#000000">seClass</text>
</g>
<!-- a6 -->
<g id="node6" class="node">
<title>a6</title>
<polygon fill="none" stroke="#000000" points="143,-126 143,-144 211,-144 211,-126 143,-126"/>
<text text-anchor="start" x="145.7545" y="-133" font-family="Times,serif" text-decoration="underline" font-size="10.00" fill="#000000">a6 :Assignment</text>
<polygon fill="none" stroke="#000000" points="143,-96 143,-126 211,-126 211,-96 143,-96"/>
<text text-anchor="start" x="146" y="-114" font-family="Times,serif" font-size="10.00" fill="#000000"> &#160;points = 42.0</text>
<text text-anchor="start" x="146" y="-102" font-family="Times,serif" font-size="10.00" fill="#000000"> &#160;task = &quot;finals&quot;</text>
</g>
<!-- s2&#45;&gt;a6 -->
<g id="edge5" class="edge">
<title>s2&#45;&gt;a6</title>
<path fill="none" stroke="#000000" d="M171.4437,-183.8971C172.4271,-172.5887 173.5591,-159.5707 174.5437,-148.2479"/>
<text text-anchor="middle" x="150.1027" y="-151.2479" font-family="Times,serif" font-size="10.00" fill="#000000">assignments</text>
<text text-anchor="middle" x="156.4472" y="-174.8971" font-family="Times,serif" font-size="10.00" fill="#000000">seClass</text>
</g>
<!-- a7 -->
<g id="node7" class="node">
<title>a7</title>
<polygon fill="none" stroke="#000000" points="245,-126 245,-144 355,-144 355,-126 245,-126"/>
<text text-anchor="start" x="265.985" y="-133" font-family="Times,serif" text-decoration="underline" font-size="10.00" fill="#000000">a7 :Achievement</text>
<polygon fill="none" stroke="#000000" points="245,-96 245,-126 355,-126 355,-96 245,-96"/>
<text text-anchor="start" x="248" y="-114" font-family="Times,serif" font-size="10.00" fill="#000000"> &#160;grade = &quot;A&quot;</text>
<text text-anchor="start" x="248" y="-102" font-family="Times,serif" font-size="10.00" fill="#000000"> &#160;officeStatus = &quot;enrolled&quot;</text>
</g>
<!-- s2&#45;&gt;a7 -->
<g id="edge6" class="edge">
<title>s2&#45;&gt;a7</title>
<path fill="none" stroke="#000000" d="M209.0161,-183.8971C225.1183,-172.5887 243.6547,-159.5707 259.7775,-148.2479"/>
<text text-anchor="middle" x="232.5625" y="-151.2479" font-family="Times,serif" font-size="10.00" fill="#000000">participations</text>
<text text-anchor="middle" x="194.0196" y="-174.8971" font-family="Times,serif" font-size="10.00" fill="#000000">seClass</text>
</g>
<!-- s3&#45;&gt;a7 -->
<g id="edge7" class="edge">
<title>s3&#45;&gt;a7</title>
<path fill="none" stroke="#000000" d="M304.8617,-183.8971C304.0013,-172.5887 303.0108,-159.5707 302.1493,-148.2479"/>
<text text-anchor="middle" x="329.3598" y="-151.2479" font-family="Times,serif" font-size="10.00" fill="#000000">achievements</text>
<text text-anchor="middle" x="290.4187" y="-174.8971" font-family="Times,serif" font-size="10.00" fill="#000000">student</text>
</g>
<!-- s8 -->
<g id="node8" class="node">
<title>s8</title>
<polygon fill="none" stroke="#000000" points="8,-34 8,-52 166,-52 166,-34 8,-34"/>
<text text-anchor="start" x="62.968" y="-41" font-family="Times,serif" text-decoration="underline" font-size="10.00" fill="#000000">s8 :Solution</text>
<polygon fill="none" stroke="#000000" points="8,-4 8,-34 166,-34 166,-4 8,-4"/>
<text text-anchor="start" x="11" y="-22" font-family="Times,serif" font-size="10.00" fill="#000000"> &#160;gitUrl = &quot;gitlab.com/alice/modeling&quot;</text>
<text text-anchor="start" x="11" y="-10" font-family="Times,serif" font-size="10.00" fill="#000000"> &#160;points = 20.0</text>
</g>
<!-- a5&#45;&gt;s8 -->
<g id="edge8" class="edge">
<title>a5&#45;&gt;s8</title>
<path fill="none" stroke="#000000" d="M73.1093,-91.8971C75.5677,-80.5887 78.3977,-67.5707 80.8592,-56.2479"/>
<text text-anchor="middle" x="62.8017" y="-59.2479" font-family="Times,serif" font-size="10.00" fill="#000000">solutions</text>
<text text-anchor="middle" x="50.6128" y="-82.8971" font-family="Times,serif" font-size="10.00" fill="#000000">assignment</text>
</g>
<!-- s9 -->
<g id="node9" class="node">
<title>s9</title>
<polygon fill="none" stroke="#000000" points="210,-34 210,-52 368,-52 368,-34 210,-34"/>
<text text-anchor="start" x="264.968" y="-41" font-family="Times,serif" text-decoration="underline" font-size="10.00" fill="#000000">s9 :Solution</text>
<polygon fill="none" stroke="#000000" points="210,-4 210,-34 368,-34 368,-4 210,-4"/>
<text text-anchor="start" x="213" y="-22" font-family="Times,serif" font-size="10.00" fill="#000000"> &#160;gitUrl = &quot;gitlab.com/alice/modeling&quot;</text>
<text text-anchor="start" x="213" y="-10" font-family="Times,serif" font-size="10.00" fill="#000000"> &#160;points = 40.0</text>
</g>
<!-- a6&#45;&gt;s9 -->
<g id="edge9" class="edge">
<title>a6&#45;&gt;s9</title>
<path fill="none" stroke="#000000" d="M211.2123,-91.8971C224.979,-80.5887 240.8269,-67.5707 254.6113,-56.2479"/>
<text text-anchor="middle" x="236.5538" y="-59.2479" font-family="Times,serif" font-size="10.00" fill="#000000">solutions</text>
<text text-anchor="middle" x="188.7158" y="-82.8971" font-family="Times,serif" font-size="10.00" fill="#000000">assignment</text>
</g>
<!-- a7&#45;&gt;s8 -->
<g id="edge10" class="edge">
<title>a7&#45;&gt;s8</title>
<path fill="none" stroke="#000000" d="M236.9575,-92.7704C210.2148,-81.2195 179.0594,-67.7628 152.0973,-56.1171"/>
<text text-anchor="middle" x="134.0398" y="-59.1171" font-family="Times,serif" font-size="10.00" fill="#000000">solutions</text>
<text text-anchor="middle" x="262.2235" y="-83.7704" font-family="Times,serif" font-size="10.00" fill="#000000">achievement</text>
</g>
<!-- a7&#45;&gt;s9 -->
<g id="edge11" class="edge">
<title>a7&#45;&gt;s9</title>
<path fill="none" stroke="#000000" d="M296.6399,-91.8971C295.2878,-80.5887 293.7313,-67.5707 292.3775,-56.2479"/>
<text text-anchor="middle" x="274.32" y="-59.2479" font-family="Times,serif" font-size="10.00" fill="#000000">solutions</text>
<text text-anchor="middle" x="321.9059" y="-82.8971" font-family="Times,serif" font-size="10.00" fill="#000000">achievement</text>
</g>
</g>
</svg>
