<?xml version="1.0" encoding="UTF-8" standalone="no"?>
<!DOCTYPE svg PUBLIC "-//W3C//DTD SVG 1.1//EN"
 "http://www.w3.org/Graphics/SVG/1.1/DTD/svg11.dtd">
<!-- Generated by graphviz version 2.40.1 (20161225.0304)
 -->
<!-- Title: H Pages: 1 -->
<svg width="492pt" height="328pt"
 viewBox="0.00 0.00 492.00 328.00" xmlns="http://www.w3.org/2000/svg" xmlns:xlink="http://www.w3.org/1999/xlink">
<g id="graph0" class="graph" transform="scale(1 1) rotate(0) translate(4 324)">
<title>H</title>
<polygon fill="#ffffff" stroke="transparent" points="-4,4 -4,-324 488,-324 488,4 -4,4"/>
<!-- s1 -->
<g id="node1" class="node">
<title>s1</title>
<polygon fill="none" stroke="#000000" points="264,-298 264,-316 338,-316 338,-298 264,-298"/>
<text text-anchor="start" x="275.308" y="-305" font-family="Times,serif" text-decoration="underline" font-size="10.00" fill="#000000">s1 :SEGroup</text>
<polygon fill="none" stroke="#000000" points="264,-280 264,-298 338,-298 338,-280 264,-280"/>
<text text-anchor="start" x="267" y="-286" font-family="Times,serif" font-size="10.00" fill="#000000"> &#160;head = &quot;Albert&quot;</text>
</g>
<!-- s2 -->
<g id="node2" class="node">
<title>s2</title>
<polygon fill="none" stroke="#000000" points="133,-218 133,-236 220,-236 220,-218 133,-218"/>
<text text-anchor="start" x="152.7495" y="-225" font-family="Times,serif" text-decoration="underline" font-size="10.00" fill="#000000">s2 :SEClass</text>
<polygon fill="none" stroke="#000000" points="133,-188 133,-218 220,-218 220,-188 133,-188"/>
<text text-anchor="start" x="136" y="-206" font-family="Times,serif" font-size="10.00" fill="#000000"> &#160;term = &quot;2018&#45;10&quot;</text>
<text text-anchor="start" x="136" y="-194" font-family="Times,serif" font-size="10.00" fill="#000000"> &#160;topic = &quot;modeling&quot;</text>
</g>
<!-- s1&#45;&gt;s2 -->
<g id="edge1" class="edge">
<title>s1&#45;&gt;s2</title>
<path fill="none" stroke="#000000" d="M268.8094,-275.8529C253.0399,-265.0035 233.8737,-251.8171 217.0622,-240.2508"/>
<text text-anchor="middle" x="203.1807" y="-243.2508" font-family="Times,serif" font-size="10.00" fill="#000000">classes</text>
<text text-anchor="middle" x="257.1449" y="-266.8529" font-family="Times,serif" font-size="10.00" fill="#000000">group</text>
</g>
<!-- s3 -->
<g id="node3" class="node">
<title>s3</title>
<polygon fill="none" stroke="#000000" points="254,-212 254,-230 348,-230 348,-212 254,-212"/>
<text text-anchor="start" x="272.804" y="-219" font-family="Times,serif" text-decoration="underline" font-size="10.00" fill="#000000">s3 :SEStudent</text>
<polygon fill="none" stroke="#000000" points="254,-194 254,-212 348,-212 348,-194 254,-194"/>
<text text-anchor="start" x="257" y="-200" font-family="Times,serif" font-size="10.00" fill="#000000"> &#160;studentId = &quot;m4242&quot;</text>
</g>
<!-- s1&#45;&gt;s3 -->
<g id="edge2" class="edge">
<title>s1&#45;&gt;s3</title>
<path fill="none" stroke="#000000" d="M301,-275.8529C301,-263.0127 301,-246.8994 301,-234.0721"/>
<text text-anchor="middle" x="284.6125" y="-237.0721" font-family="Times,serif" font-size="10.00" fill="#000000">students</text>
<text text-anchor="middle" x="289.3355" y="-266.8529" font-family="Times,serif" font-size="10.00" fill="#000000">group</text>
</g>
<!-- s4 -->
<g id="node4" class="node">
<title>s4</title>
<polygon fill="none" stroke="#000000" points="382,-212 382,-230 476,-230 476,-212 382,-212"/>
<text text-anchor="start" x="400.804" y="-219" font-family="Times,serif" text-decoration="underline" font-size="10.00" fill="#000000">s4 :SEStudent</text>
<polygon fill="none" stroke="#000000" points="382,-194 382,-212 476,-212 476,-194 382,-194"/>
<text text-anchor="start" x="385" y="-200" font-family="Times,serif" font-size="10.00" fill="#000000"> &#160;studentId = &quot;m2323&quot;</text>
</g>
<!-- s1&#45;&gt;s4 -->
<g id="edge3" class="edge">
<title>s1&#45;&gt;s4</title>
<path fill="none" stroke="#000000" d="M333.9632,-275.8529C353.0741,-263.0127 377.0567,-246.8994 396.1485,-234.0721"/>
<text text-anchor="middle" x="379.761" y="-237.0721" font-family="Times,serif" font-size="10.00" fill="#000000">students</text>
<text text-anchor="middle" x="322.2987" y="-266.8529" font-family="Times,serif" font-size="10.00" fill="#000000">group</text>
</g>
<!-- a5 -->
<g id="node5" class="node">
<title>a5</title>
<polygon fill="none" stroke="#000000" points="25,-126 25,-144 109,-144 109,-126 25,-126"/>
<text text-anchor="start" x="35.7545" y="-133" font-family="Times,serif" text-decoration="underline" font-size="10.00" fill="#000000">a5 :Assignment</text>
<polygon fill="none" stroke="#000000" points="25,-96 25,-126 109,-126 109,-96 25,-96"/>
<text text-anchor="start" x="28" y="-114" font-family="Times,serif" font-size="10.00" fill="#000000"> &#160;points = 23.0</text>
<text text-anchor="start" x="28" y="-102" font-family="Times,serif" font-size="10.00" fill="#000000"> &#160;task = &quot;mid_term&quot;</text>
</g>
<!-- s2&#45;&gt;a5 -->
<g id="edge4" class="edge">
<title>s2&#45;&gt;a5</title>
<path fill="none" stroke="#000000" d="M142.7041,-183.8971C129.3062,-172.5887 113.8827,-159.5707 100.4676,-148.2479"/>
<text text-anchor="middle" x="76.0266" y="-151.2479" font-family="Times,serif" font-size="10.00" fill="#000000">assignments</text>
<text text-anchor="middle" x="127.7076" y="-174.8971" font-family="Times,serif" font-size="10.00" fill="#000000">seClass</text>
</g>
<!-- a6 -->
<g id="node6" class="node">
<title>a6</title>
<polygon fill="none" stroke="#000000" points="143,-126 143,-144 211,-144 211,-126 143,-126"/>
<text text-anchor="start" x="145.7545" y="-133" font-family="Times,serif" text-decoration="underline" font-size="10.00" fill="#000000">a6 :Assignment</text>
<polygon fill="none" stroke="#000000" points="143,-96 143,-126 211,-126 211,-96 143,-96"/>
<text text-anchor="start" x="146" y="-114" font-family="Times,serif" font-size="10.00" fill="#000000"> &#160;points = 42.0</text>
<text text-anchor="start" x="146" y="-102" font-family="Times,serif" font-size="10.00" fill="#000000"> &#160;task = &quot;finals&quot;</text>
</g>
<!-- s2&#45;&gt;a6 -->
<g id="edge5" class="edge">
<title>s2&#45;&gt;a6</title>
<path fill="none" stroke="#000000" d="M176.3055,-183.8971C176.4284,-172.5887 176.5699,-159.5707 176.693,-148.2479"/>
<text text-anchor="middle" x="152.252" y="-151.2479" font-family="Times,serif" font-size="10.00" fill="#000000">assignments</text>
<text text-anchor="middle" x="161.309" y="-174.8971" font-family="Times,serif" font-size="10.00" fill="#000000">seClass</text>
</g>
<!-- a7 -->
<g id="node7" class="node">
<title>a7</title>
<polygon fill="none" stroke="#000000" points="245,-126 245,-144 355,-144 355,-126 245,-126"/>
<text text-anchor="start" x="265.985" y="-133" font-family="Times,serif" text-decoration="underline" font-size="10.00" fill="#000000">a7 :Achievement</text>
<polygon fill="none" stroke="#000000" points="245,-96 245,-126 355,-126 355,-96 245,-96"/>
<text text-anchor="start" x="248" y="-114" font-family="Times,serif" font-size="10.00" fill="#000000"> &#160;grade = &quot;A&quot;</text>
<text text-anchor="start" x="248" y="-102" font-family="Times,serif" font-size="10.00" fill="#000000"> &#160;officeStatus = &quot;enrolled&quot;</text>
</g>
<!-- s2&#45;&gt;a7 -->
<g id="edge6" class="edge">
<title>s2&#45;&gt;a7</title>
<path fill="none" stroke="#000000" d="M213.8779,-183.8971C229.1196,-172.5887 246.6655,-159.5707 261.9268,-148.2479"/>
<text text-anchor="middle" x="234.7118" y="-151.2479" font-family="Times,serif" font-size="10.00" fill="#000000">participations</text>
<text text-anchor="middle" x="198.8814" y="-174.8971" font-family="Times,serif" font-size="10.00" fill="#000000">seClass</text>
</g>
<!-- s3&#45;&gt;a7 -->
<g id="edge7" class="edge">
<title>s3&#45;&gt;a7</title>
<path fill="none" stroke="#000000" d="M300.7579,-189.7294C300.6215,-177.1791 300.4498,-161.3837 300.3044,-148.0012"/>
<text text-anchor="middle" x="327.5149" y="-151.0012" font-family="Times,serif" font-size="10.00" fill="#000000">achievements</text>
<text text-anchor="middle" x="286.3149" y="-180.7294" font-family="Times,serif" font-size="10.00" fill="#000000">student</text>
</g>
<!-- s8 -->
<g id="node8" class="node">
<title>s8</title>
<polygon fill="none" stroke="#000000" points="8,-34 8,-52 166,-52 166,-34 8,-34"/>
<text text-anchor="start" x="62.968" y="-41" font-family="Times,serif" text-decoration="underline" font-size="10.00" fill="#000000">s8 :Solution</text>
<polygon fill="none" stroke="#000000" points="8,-4 8,-34 166,-34 166,-4 8,-4"/>
<text text-anchor="start" x="11" y="-22" font-family="Times,serif" font-size="10.00" fill="#000000"> &#160;gitUrl = &quot;gitlab.com/alice/modeling&quot;</text>
<text text-anchor="start" x="11" y="-10" font-family="Times,serif" font-size="10.00" fill="#000000"> &#160;points = 20.0</text>
</g>
<!-- a5&#45;&gt;s8 -->
<g id="edge8" class="edge">
<title>a5&#45;&gt;s8</title>
<path fill="none" stroke="#000000" d="M73.1093,-91.8971C75.5677,-80.5887 78.3977,-67.5707 80.8592,-56.2479"/>
<text text-anchor="middle" x="62.8017" y="-59.2479" font-family="Times,serif" font-size="10.00" fill="#000000">solutions</text>
<text text-anchor="middle" x="50.6128" y="-82.8971" font-family="Times,serif" font-size="10.00" fill="#000000">assignment</text>
</g>
<!-- s9 -->
<g id="node9" class="node">
<title>s9</title>
<polygon fill="none" stroke="#000000" points="210,-34 210,-52 368,-52 368,-34 210,-34"/>
<text text-anchor="start" x="264.968" y="-41" font-family="Times,serif" text-decoration="underline" font-size="10.00" fill="#000000">s9 :Solution</text>
<polygon fill="none" stroke="#000000" points="210,-4 210,-34 368,-34 368,-4 210,-4"/>
<text text-anchor="start" x="213" y="-22" font-family="Times,serif" font-size="10.00" fill="#000000"> &#160;gitUrl = &quot;gitlab.com/alice/modeling&quot;</text>
<text text-anchor="start" x="213" y="-10" font-family="Times,serif" font-size="10.00" fill="#000000"> &#160;points = 40.0</text>
</g>
<!-- a6&#45;&gt;s9 -->
<g id="edge9" class="edge">
<title>a6&#45;&gt;s9</title>
<path fill="none" stroke="#000000" d="M211.2123,-91.8971C224.979,-80.5887 240.8269,-67.5707 254.6113,-56.2479"/>
<text text-anchor="middle" x="236.5538" y="-59.2479" font-family="Times,serif" font-size="10.00" fill="#000000">solutions</text>
<text text-anchor="middle" x="188.7158" y="-82.8971" font-family="Times,serif" font-size="10.00" fill="#000000">assignment</text>
</g>
<!-- a7&#45;&gt;s8 -->
<g id="edge10" class="edge">
<title>a7&#45;&gt;s8</title>
<path fill="none" stroke="#000000" d="M236.9575,-92.7704C210.2148,-81.2195 179.0594,-67.7628 152.0973,-56.1171"/>
<text text-anchor="middle" x="134.0398" y="-59.1171" font-family="Times,serif" font-size="10.00" fill="#000000">solutions</text>
<text text-anchor="middle" x="262.2235" y="-83.7704" font-family="Times,serif" font-size="10.00" fill="#000000">achievement</text>
</g>
<!-- a7&#45;&gt;s9 -->
<g id="edge11" class="edge">
<title>a7&#45;&gt;s9</title>
<path fill="none" stroke="#000000" d="M296.6399,-91.8971C295.2878,-80.5887 293.7313,-67.5707 292.3775,-56.2479"/>
<text text-anchor="middle" x="274.32" y="-59.2479" font-family="Times,serif" font-size="10.00" fill="#000000">solutions</text>
<text text-anchor="middle" x="321.9059" y="-82.8971" font-family="Times,serif" font-size="10.00" fill="#000000">achievement</text>
</g>
</g>
</svg>
