<?xml version="1.0" encoding="UTF-8" standalone="no"?>
<!DOCTYPE svg PUBLIC "-//W3C//DTD SVG 1.1//EN"
 "http://www.w3.org/Graphics/SVG/1.1/DTD/svg11.dtd">
<!-- Generated by graphviz version 2.40.1 (20161225.0304)
 -->
<!-- Title: H Pages: 1 -->
<svg width="428pt" height="328pt"
 viewBox="0.00 0.00 427.50 328.00" xmlns="http://www.w3.org/2000/svg" xmlns:xlink="http://www.w3.org/1999/xlink">
<g id="graph0" class="graph" transform="scale(1 1) rotate(0) translate(4 324)">
<title>H</title>
<polygon fill="#ffffff" stroke="transparent" points="-4,4 -4,-324 423.5,-324 423.5,4 -4,4"/>
<!-- s1 -->
<g id="node1" class="node">
<title>s1</title>
<polygon fill="none" stroke="#000000" points="205.5,-298 205.5,-316 281.5,-316 281.5,-298 205.5,-298"/>
<text text-anchor="start" x="208.371" y="-305" font-family="Times,serif" text-decoration="underline" font-size="10.00" fill="#000000">s1 :StudentOffice</text>
<polygon fill="none" stroke="#000000" points="205.5,-280 205.5,-298 281.5,-298 281.5,-280 205.5,-280"/>
<text text-anchor="start" x="209.11" y="-286" font-family="Times,serif" font-size="10.00" fill="#000000"> &#160;department = &quot;&quot;</text>
</g>
<!-- albert2 -->
<g id="node2" class="node">
<title>albert2</title>
<polygon fill="none" stroke="#000000" points="37.5,-206 37.5,-224 113.5,-224 113.5,-206 37.5,-206"/>
<text text-anchor="start" x="42.0465" y="-213" font-family="Times,serif" text-decoration="underline" font-size="10.00" fill="#000000">albert2 :Lecturer</text>
<polygon fill="none" stroke="#000000" points="37.5,-188 37.5,-206 113.5,-206 113.5,-188 37.5,-188"/>
<text text-anchor="start" x="40.5" y="-194" font-family="Times,serif" font-size="10.00" fill="#000000"> &#160;name = &quot;Albert&quot;</text>
</g>
<!-- s1&#45;&gt;albert2 -->
<g id="edge1" class="edge">
<title>s1&#45;&gt;albert2</title>
<path fill="none" stroke="#000000" d="M203.2598,-275.9637C176.7589,-261.4513 142.1959,-242.524 115.7026,-228.0157"/>
<text text-anchor="middle" x="98.4916" y="-231.0157" font-family="Times,serif" font-size="10.00" fill="#000000">lecturers</text>
<text text-anchor="middle" x="180.7683" y="-266.9637" font-family="Times,serif" font-size="10.00" fill="#000000">department</text>
</g>
<!-- s3 -->
<g id="node3" class="node">
<title>s3</title>
<polygon fill="none" stroke="#000000" points="168.5,-206 168.5,-224 245.5,-224 245.5,-206 168.5,-206"/>
<text text-anchor="start" x="171.0295" y="-213" font-family="Times,serif" text-decoration="underline" font-size="10.00" fill="#000000">s3 :StudyProgram</text>
<polygon fill="none" stroke="#000000" points="168.5,-188 168.5,-206 245.5,-206 245.5,-188 168.5,-188"/>
<text text-anchor="start" x="174.825" y="-194" font-family="Times,serif" font-size="10.00" fill="#000000"> &#160;subject = &quot;CS&quot;</text>
</g>
<!-- s1&#45;&gt;s3 -->
<g id="edge2" class="edge">
<title>s1&#45;&gt;s3</title>
<path fill="none" stroke="#000000" d="M234.5433,-275.7294C228.726,-261.2647 221.175,-242.4892 215.3742,-228.0655"/>
<text text-anchor="middle" x="196.4917" y="-231.0655" font-family="Times,serif" font-size="10.00" fill="#000000">programs</text>
<text text-anchor="middle" x="257.0348" y="-266.7294" font-family="Times,serif" font-size="10.00" fill="#000000">department</text>
</g>
<!-- alice4 -->
<g id="node4" class="node">
<title>alice4</title>
<polygon fill="none" stroke="#000000" points="273.5,-114 273.5,-132 367.5,-132 367.5,-114 273.5,-114"/>
<text text-anchor="start" x="283.146" y="-121" font-family="Times,serif" text-decoration="underline" font-size="10.00" fill="#000000">alice4 :UniStudent</text>
<polygon fill="none" stroke="#000000" points="273.5,-84 273.5,-114 367.5,-114 367.5,-84 273.5,-84"/>
<text text-anchor="start" x="276.5" y="-102" font-family="Times,serif" font-size="10.00" fill="#000000"> &#160;name = &quot;Alice&quot;</text>
<text text-anchor="start" x="276.5" y="-90" font-family="Times,serif" font-size="10.00" fill="#000000"> &#160;studentId = &quot;m4242&quot;</text>
</g>
<!-- s1&#45;&gt;alice4 -->
<g id="edge3" class="edge">
<title>s1&#45;&gt;alice4</title>
<path fill="none" stroke="#000000" d="M252.4836,-275.8327C266.5272,-241.1795 293.6659,-174.214 309.0782,-136.1838"/>
<text text-anchor="middle" x="292.6907" y="-139.1838" font-family="Times,serif" font-size="10.00" fill="#000000">students</text>
<text text-anchor="middle" x="229.9921" y="-266.8327" font-family="Times,serif" font-size="10.00" fill="#000000">department</text>
</g>
<!-- bob5 -->
<g id="node5" class="node">
<title>bob5</title>
<polygon fill="none" stroke="#000000" points="317.5,-218 317.5,-236 411.5,-236 411.5,-218 317.5,-218"/>
<text text-anchor="start" x="329.0835" y="-225" font-family="Times,serif" text-decoration="underline" font-size="10.00" fill="#000000">bob5 :UniStudent</text>
<polygon fill="none" stroke="#000000" points="317.5,-176 317.5,-218 411.5,-218 411.5,-176 317.5,-176"/>
<text text-anchor="start" x="320.5" y="-206" font-family="Times,serif" font-size="10.00" fill="#000000"> &#160;majorSubject = null</text>
<text text-anchor="start" x="320.5" y="-194" font-family="Times,serif" font-size="10.00" fill="#000000"> &#160;name = &quot;Bob&quot;</text>
<text text-anchor="start" x="320.5" y="-182" font-family="Times,serif" font-size="10.00" fill="#000000"> &#160;studentId = &quot;m2323&quot;</text>
</g>
<!-- s1&#45;&gt;bob5 -->
<g id="edge4" class="edge">
<title>s1&#45;&gt;bob5</title>
<path fill="none" stroke="#000000" d="M272.4825,-275.9637C286.6055,-265.2256 303.9075,-252.0703 319.6818,-240.0766"/>
<text text-anchor="middle" x="303.2943" y="-243.0766" font-family="Times,serif" font-size="10.00" fill="#000000">students</text>
<text text-anchor="middle" x="294.974" y="-266.9637" font-family="Times,serif" font-size="10.00" fill="#000000">department</text>
</g>
<!-- e6 -->
<g id="node6" class="node">
<title>e6</title>
<polygon fill="none" stroke="#000000" points="8.5,-108 8.5,-126 101.5,-126 101.5,-108 8.5,-108"/>
<text text-anchor="start" x="22.0895" y="-115" font-family="Times,serif" text-decoration="underline" font-size="10.00" fill="#000000">e6 :Examination</text>
<polygon fill="none" stroke="#000000" points="8.5,-90 8.5,-108 101.5,-108 101.5,-90 8.5,-90"/>
<text text-anchor="start" x="11.5" y="-96" font-family="Times,serif" font-size="10.00" fill="#000000"> &#160;date = &quot;2019&#45;03&#45;19&quot;</text>
</g>
<!-- albert2&#45;&gt;e6 -->
<g id="edge5" class="edge">
<title>albert2&#45;&gt;e6</title>
<path fill="none" stroke="#000000" d="M70.7348,-183.7623C67.298,-167.724 62.6788,-146.1678 59.2464,-130.1497"/>
<text text-anchor="middle" x="32.5854" y="-133.1497" font-family="Times,serif" font-size="10.00" fill="#000000">examinations</text>
<text text-anchor="middle" x="55.4683" y="-174.7623" font-family="Times,serif" font-size="10.00" fill="#000000">lecturer</text>
</g>
<!-- s3&#45;&gt;alice4 -->
<g id="edge8" class="edge">
<title>s3&#45;&gt;alice4</title>
<path fill="none" stroke="#000000" d="M232.3684,-183.7623C248.7916,-169.6441 270.1887,-151.25 287.7868,-136.1218"/>
<text text-anchor="middle" x="271.3993" y="-139.1218" font-family="Times,serif" font-size="10.00" fill="#000000">students</text>
<text text-anchor="middle" x="205.7079" y="-174.7623" font-family="Times,serif" font-size="10.00" fill="#000000">majorSubject</text>
</g>
<!-- c7 -->
<g id="node7" class="node">
<title>c7</title>
<polygon fill="none" stroke="#000000" points="174.5,-108 174.5,-126 239.5,-126 239.5,-108 174.5,-108"/>
<text text-anchor="start" x="185.478" y="-115" font-family="Times,serif" text-decoration="underline" font-size="10.00" fill="#000000">c7 :Course</text>
<polygon fill="none" stroke="#000000" points="174.5,-90 174.5,-108 239.5,-108 239.5,-90 174.5,-90"/>
<text text-anchor="start" x="177.5" y="-96" font-family="Times,serif" font-size="10.00" fill="#000000"> &#160;title = &quot;math&quot;</text>
</g>
<!-- s3&#45;&gt;c7 -->
<g id="edge6" class="edge">
<title>s3&#45;&gt;c7</title>
<path fill="none" stroke="#000000" d="M206.5,-183.7623C206.5,-167.724 206.5,-146.1678 206.5,-130.1497"/>
<text text-anchor="middle" x="191.5075" y="-133.1497" font-family="Times,serif" font-size="10.00" fill="#000000">courses</text>
<text text-anchor="middle" x="225.3825" y="-174.7623" font-family="Times,serif" font-size="10.00" fill="#000000">programs</text>
</g>
<!-- c8 -->
<g id="node8" class="node">
<title>c8</title>
<polygon fill="none" stroke="#000000" points="54.5,-22 54.5,-40 137.5,-40 137.5,-22 54.5,-22"/>
<text text-anchor="start" x="74.478" y="-29" font-family="Times,serif" text-decoration="underline" font-size="10.00" fill="#000000">c8 :Course</text>
<polygon fill="none" stroke="#000000" points="54.5,-4 54.5,-22 137.5,-22 137.5,-4 54.5,-4"/>
<text text-anchor="start" x="57.5" y="-10" font-family="Times,serif" font-size="10.00" fill="#000000"> &#160;title = &quot;modeling&quot;</text>
</g>
<!-- s3&#45;&gt;c8 -->
<g id="edge7" class="edge">
<title>s3&#45;&gt;c8</title>
<path fill="none" stroke="#000000" d="M189.5303,-183.8063C179.4772,-170.2862 166.7436,-152.4927 156.5,-136 137.314,-105.1093 117.9827,-67.6631 106.3731,-44.3285"/>
<text text-anchor="middle" x="91.3806" y="-47.3285" font-family="Times,serif" font-size="10.00" fill="#000000">courses</text>
<text text-anchor="middle" x="170.6478" y="-174.8063" font-family="Times,serif" font-size="10.00" fill="#000000">programs</text>
</g>
<!-- e9 -->
<g id="node9" class="node">
<title>e9</title>
<polygon fill="none" stroke="#000000" points="229.5,-22 229.5,-40 294.5,-40 294.5,-22 229.5,-22"/>
<text text-anchor="start" x="232.1445" y="-29" font-family="Times,serif" text-decoration="underline" font-size="10.00" fill="#000000">e9 :Enrollment</text>
<polygon fill="none" stroke="#000000" points="229.5,-4 229.5,-22 294.5,-22 294.5,-4 229.5,-4"/>
<text text-anchor="start" x="235.298" y="-10" font-family="Times,serif" font-size="10.00" fill="#000000"> &#160;grade = null</text>
</g>
<!-- alice4&#45;&gt;e9 -->
<g id="edge9" class="edge">
<title>alice4&#45;&gt;e9</title>
<path fill="none" stroke="#000000" d="M301.1812,-79.8404C293.2499,-68.2795 284.1995,-55.0873 276.7467,-44.224"/>
<text text-anchor="middle" x="253.1407" y="-47.224" font-family="Times,serif" font-size="10.00" fill="#000000">enrollments</text>
<text text-anchor="middle" x="286.7382" y="-70.8404" font-family="Times,serif" font-size="10.00" fill="#000000">student</text>
</g>
<!-- e6&#45;&gt;c8 -->
<g id="edge11" class="edge">
<title>e6&#45;&gt;c8</title>
<path fill="none" stroke="#000000" d="M65.0585,-85.8529C71.18,-73.0127 78.8619,-56.8994 84.9773,-44.0721"/>
<text text-anchor="middle" x="74.9788" y="-47.0721" font-family="Times,serif" font-size="10.00" fill="#000000">topic</text>
<text text-anchor="middle" x="52.2855" y="-76.8529" font-family="Times,serif" font-size="10.00" fill="#000000">exams</text>
</g>
<!-- e6&#45;&gt;e9 -->
<g id="edge10" class="edge">
<title>e6&#45;&gt;e9</title>
<path fill="none" stroke="#000000" d="M107.5388,-85.9645C142.7564,-71.3331 188.2939,-52.4141 220.6875,-38.9559"/>
<text text-anchor="middle" x="197.0815" y="-41.9559" font-family="Times,serif" font-size="10.00" fill="#000000">enrollments</text>
<text text-anchor="middle" x="96.7103" y="-76.9645" font-family="Times,serif" font-size="10.00" fill="#000000">exam</text>
</g>
</g>
</svg>
